<svg width="101" height="28" viewBox="0 0 101 28" fill="none" xmlns="http://www.w3.org/2000/svg">
<g clip-path="url(#clip0)">
<path d="M20.5511 6.31592V6.66129C20.5511 12.0146 18.5276 17.0473 14.8221 20.8957L14.7002 21.0437C14.6271 21.1178 14.5539 21.1671 14.5052 21.2411L14.4077 21.3398C10.6046 25.0649 5.63143 27.1125 0.341299 27.1125H0V23.2887H0.365677C4.24185 23.2887 7.99614 21.8825 10.9703 19.3662C10.1658 14.0869 5.63143 10.1151 0.365677 10.1151H0V6.31592H0.365677C5.80208 6.31592 10.2877 9.00492 12.6037 13.1741C12.9937 13.8895 13.6519 15.3944 12.9937 16.4058L13.4325 16.7265C13.5788 16.5785 13.4569 16.6772 13.6032 16.5292C13.847 16.2085 14.0908 15.8631 14.2858 15.4931C14.3345 15.419 14.3833 15.345 14.4321 15.271C15.9923 12.6807 16.8211 9.74501 16.8211 6.68596V6.31592H20.5511Z" fill="#565656"/>
<path d="M32.0823 6.31592H35.7635V20.9697H32.0823V18.8481H31.546C30.9122 20.5504 29.5226 21.3891 27.4017 21.3891C26.6703 21.3891 26.0121 21.2658 25.3783 21.0437C24.7444 20.7971 24.2081 20.4517 23.7449 19.9583C23.2817 19.4649 22.916 18.8481 22.6479 18.108C22.3797 17.368 22.2578 16.5045 22.2578 15.4931V6.31592H25.939V14.7036C25.939 15.7398 26.1827 16.5539 26.6703 17.1459C27.1579 17.738 27.8892 18.0094 28.8644 18.0094C29.9614 18.0094 30.7903 17.6393 31.3022 16.9239C31.8142 16.2085 32.0823 15.2217 32.0823 13.9882V6.31592Z" fill="#565656"/>
<path d="M41.7124 27.1125H38.0312V6.31587H41.7124V8.43747H42.2487C42.6388 7.62337 43.1995 7.00662 43.9308 6.56257C44.6622 6.11851 45.613 5.89648 46.7587 5.89648C47.612 5.89648 48.4165 6.06917 49.1966 6.38988C49.9767 6.73526 50.6349 7.20398 51.22 7.84539C51.8051 8.48681 52.2439 9.27624 52.5852 10.189C52.9265 11.1265 53.0971 12.1626 53.0971 13.3467V13.8895C53.0971 15.0983 52.9265 16.1591 52.6096 17.0719C52.2683 18.0093 51.8295 18.7741 51.2688 19.4155C50.7081 20.0569 50.0255 20.5256 49.2697 20.871C48.4896 21.1917 47.6607 21.3644 46.7831 21.3644C46.1249 21.3644 45.5398 21.2904 45.0522 21.167C44.5647 21.019 44.1502 20.8463 43.7846 20.5996C43.4189 20.3529 43.1263 20.0816 42.8826 19.7855C42.6388 19.4895 42.4194 19.1688 42.2487 18.8234H41.7124V27.1125ZM45.5642 17.8366C46.71 17.8366 47.6364 17.4666 48.3433 16.7512C49.0503 16.0357 49.416 15.049 49.416 13.8155V13.4701C49.416 12.2366 49.0503 11.2498 48.3433 10.5344C47.6364 9.81897 46.71 9.44893 45.5642 9.44893C44.4184 9.44893 43.492 9.81897 42.7851 10.5591C42.0781 11.2992 41.7124 12.2613 41.7124 13.4701V13.8155C41.7124 15.0243 42.0781 15.9864 42.7851 16.7265C43.492 17.4666 44.4184 17.8366 45.5642 17.8366Z" fill="#565656"/>
<path d="M58.2397 27.1125H54.5586V6.31587H58.2397V8.43747H58.7761C59.1661 7.62337 59.7268 7.00662 60.4582 6.56257C61.1895 6.11851 62.1403 5.89648 63.2861 5.89648C64.1393 5.89648 64.9438 6.06917 65.724 6.38988C66.5041 6.73526 67.1623 7.20398 67.7474 7.84539C68.3324 8.48681 68.7713 9.27624 69.1126 10.189C69.4539 11.1265 69.6245 12.1626 69.6245 13.3467V13.8895C69.6245 15.0983 69.4539 16.1591 69.1369 17.0719C68.7956 18.0093 68.3568 18.7741 67.7961 19.4155C67.2354 20.0569 66.5528 20.5256 65.7971 20.871C65.017 21.1917 64.1881 21.3644 63.3105 21.3644C62.6523 21.3644 62.0672 21.2904 61.5796 21.167C61.092 21.019 60.6776 20.8463 60.3119 20.5996C59.9462 20.3529 59.6537 20.0816 59.4099 19.7855C59.1661 19.4895 58.9467 19.1688 58.7761 18.8234H58.2397V27.1125ZM62.0916 17.8366C63.2373 17.8366 64.1637 17.4666 64.8707 16.7512C65.5777 16.0357 65.9434 15.049 65.9434 13.8155V13.4701C65.9434 12.2366 65.5777 11.2498 64.8707 10.5344C64.1637 9.81897 63.2373 9.44893 62.0916 9.44893C60.9458 9.44893 60.0194 9.81897 59.3124 10.5591C58.6054 11.2992 58.2397 12.2613 58.2397 13.4701V13.8155C58.2397 15.0243 58.6054 15.9864 59.3124 16.7265C60.0194 17.4666 60.9458 17.8366 62.0916 17.8366Z" fill="#565656"/>
<path d="M100.196 6.14316C100.439 6.29118 100.659 6.48853 100.781 6.73523C100.927 6.98193 101 7.27797 101 7.59867C101 7.91938 100.927 8.19075 100.781 8.46211C100.634 8.73348 100.439 8.93084 100.171 9.07886C99.9274 9.22687 99.6348 9.30088 99.3179 9.30088C99.001 9.30088 98.7328 9.22687 98.489 9.07886C98.2452 8.93084 98.0258 8.73348 97.8796 8.46211C97.7333 8.21542 97.6602 7.91938 97.6602 7.62334C97.6602 7.32731 97.7333 7.03127 97.8796 6.78457C98.0258 6.53787 98.2209 6.31585 98.489 6.16783C98.7328 6.01981 99.0254 5.9458 99.3423 5.9458C99.6592 5.9458 99.9274 5.99514 100.196 6.14316ZM100.049 8.83216C100.269 8.70881 100.439 8.53612 100.561 8.3141C100.683 8.09207 100.756 7.84537 100.756 7.59867C100.756 7.32731 100.707 7.10528 100.586 6.88325C100.464 6.66122 100.293 6.48853 100.098 6.36519C99.8786 6.24184 99.6592 6.16783 99.391 6.16783C99.1229 6.16783 98.8791 6.24184 98.684 6.36519C98.4646 6.48853 98.294 6.66122 98.1721 6.88325C98.0502 7.10528 98.0015 7.35198 98.0015 7.59867C98.0015 7.87004 98.0502 8.09207 98.1721 8.3141C98.294 8.53612 98.4646 8.70881 98.684 8.83216C98.9035 8.95551 99.1229 9.02952 99.391 9.02952C99.5861 9.02952 99.8298 8.95551 100.049 8.83216ZM100.098 7.67268C100.025 7.77136 99.9517 7.84537 99.8298 7.89471L100.244 8.53612H99.8298L99.4642 7.96872H99.4154H99.0497V8.53612H98.6353V6.66122H99.4154C99.6592 6.66122 99.8542 6.71056 99.9761 6.83391C100.122 6.95726 100.196 7.10528 100.196 7.30264C100.196 7.45065 100.171 7.574 100.098 7.67268ZM99.391 7.64801C99.5129 7.64801 99.6348 7.62334 99.7079 7.54933C99.7811 7.49999 99.8055 7.40131 99.8055 7.30264C99.8055 7.20396 99.7567 7.10528 99.7079 7.05594C99.6348 7.0066 99.5373 6.98193 99.391 6.98193H99.0497V7.64801H99.391Z" fill="#565656"/>
<path d="M78.3539 17.5405V8.16597C78.3539 7.40121 78.1345 6.80914 77.7445 6.41442C77.3544 6.04437 76.7937 5.87169 76.038 5.89636L71.4304 6.19239H71.3573V9.59682L74.6728 9.39946V17.5405H70.6016V20.9449H82.4495V17.5405H78.3539Z" fill="#565656"/>
<path d="M76.1594 4.56413C77.6953 4.56413 78.6948 3.67602 78.6948 2.29452C78.6948 0.937682 77.6709 0.0249023 76.1594 0.0249023C74.6236 0.0249023 73.6484 0.913013 73.6484 2.29452C73.6484 3.67602 74.5992 4.56413 76.1594 4.56413Z" fill="#565656"/>
<path d="M86.057 14.9256C86.0813 15.3697 86.1788 15.7644 86.3739 16.1344C86.5689 16.5045 86.8127 16.8252 87.154 17.0966C87.4709 17.3679 87.861 17.5653 88.2754 17.7133C88.6898 17.8613 89.153 17.9353 89.6162 17.9353C90.5426 17.9353 91.2496 17.7626 91.7371 17.4419C92.2247 17.1212 92.5904 16.7265 92.8098 16.2578L96.0034 18.0587C95.8327 18.4287 95.5889 18.8234 95.272 19.2428C94.9551 19.6622 94.5407 20.0323 94.0531 20.353C93.5411 20.6983 92.9317 20.9697 92.2247 21.1917C91.5177 21.4138 90.6645 21.5125 89.6893 21.5125C88.5923 21.5125 87.5684 21.3398 86.6664 20.9697C85.7644 20.5997 84.9843 20.0816 84.3261 19.4155C83.6679 18.7494 83.1559 17.9107 82.7902 16.9239C82.4246 15.9371 82.2539 14.8516 82.2539 13.5935V13.4208C82.2539 12.286 82.4489 11.2498 82.839 10.3124C83.229 9.37494 83.741 8.58551 84.4236 7.91943C85.0818 7.25334 85.8863 6.75995 86.7639 6.3899C87.6659 6.01986 88.6167 5.84717 89.6406 5.84717C90.9083 5.84717 91.9809 6.0692 92.8829 6.51325C93.7849 6.95731 94.5407 7.52471 95.1258 8.21546C95.7108 8.90621 96.1496 9.67098 96.4178 10.4851C96.686 11.3238 96.8322 12.1133 96.8322 12.9027V14.901H86.057V14.9256ZM89.5918 9.25159C88.6411 9.25159 87.8853 9.49829 87.2759 9.99168C86.6908 10.4851 86.3007 11.0525 86.1301 11.6939H93.0536C92.9317 11.0031 92.566 10.4111 91.9322 9.96701C91.3227 9.49829 90.5182 9.25159 89.5918 9.25159Z" fill="#565656"/>
</g>
<defs>
<clipPath id="clip0">
<rect width="101" height="27.112" fill="white"/>
</clipPath>
</defs>
</svg>
