<svg width="52" height="71" viewBox="0 0 52 71" fill="none" xmlns="http://www.w3.org/2000/svg">
<g clip-path="url(#clip0)">
<path d="M51.4066 32.4453C50.6141 31.6512 49.3281 31.65 48.5339 32.4424L27.4363 53.4962C26.6442 54.2882 25.3557 54.2881 24.5622 53.4947L3.46613 32.4424C2.67201 31.6499 1.38602 31.6512 0.593431 32.4453C-0.19896 33.2394 -0.19764 34.5255 0.596376 35.3179L21.691 56.3688C22.8794 57.557 24.4399 58.1509 26.0006 58.1509C27.5604 58.1509 29.1205 57.5572 30.3074 56.3702L51.4036 35.3179C52.1976 34.5255 52.199 33.2394 51.4066 32.4453Z" fill="white"/>
</g>
<g opacity="0.9" clip-path="url(#clip1)">
<path d="M50.4294 12.9282C49.6674 12.1647 48.4309 12.1635 47.6672 12.9254L27.3811 33.1695C26.6194 33.931 25.3805 33.9309 24.6175 33.168L4.33281 12.9254C3.56924 12.1634 2.33272 12.1647 1.57061 12.9282C0.808692 13.6918 0.809962 14.9284 1.57344 15.6904L21.8567 35.9316C22.9994 37.0741 24.4999 37.6451 26.0006 37.6451C27.5004 37.6451 29.0005 37.0743 30.1417 35.9329L50.4266 15.6904C51.19 14.9284 51.1913 13.6918 50.4294 12.9282Z" fill="white"/>
</g>
<defs>
<clipPath id="clip0">
<rect width="52" height="52" fill="white" transform="translate(0 19)"/>
</clipPath>
<clipPath id="clip1">
<rect width="50" height="50" fill="white" transform="translate(1)"/>
</clipPath>
</defs>
</svg>
