<svg width="25" height="25" viewBox="0 0 25 25" fill="none" xmlns="http://www.w3.org/2000/svg">
<path fill-rule="evenodd" clip-rule="evenodd" d="M6.25 0.78125C6.25 0.57405 6.16769 0.375336 6.02118 0.228823C5.87466 0.08231 5.67595 0 5.46875 0C5.26155 0 5.06284 0.08231 4.91632 0.228823C4.76981 0.375336 4.6875 0.57405 4.6875 0.78125V1.5625H3.125C2.2962 1.5625 1.50134 1.89174 0.915291 2.47779C0.32924 3.06384 0 3.8587 0 4.6875L0 6.25H25V4.6875C25 3.8587 24.6708 3.06384 24.0847 2.47779C23.4987 1.89174 22.7038 1.5625 21.875 1.5625H20.3125V0.78125C20.3125 0.57405 20.2302 0.375336 20.0837 0.228823C19.9372 0.08231 19.7385 0 19.5312 0C19.324 0 19.1253 0.08231 18.9788 0.228823C18.8323 0.375336 18.75 0.57405 18.75 0.78125V1.5625H6.25V0.78125ZM0 7.8125H25V21.875C25 22.7038 24.6708 23.4987 24.0847 24.0847C23.4987 24.6708 22.7038 25 21.875 25H3.125C2.2962 25 1.50134 24.6708 0.915291 24.0847C0.32924 23.4987 0 22.7038 0 21.875V7.8125ZM14.8438 10.9375C14.6365 10.9375 14.4378 11.0198 14.2913 11.1663C14.1448 11.3128 14.0625 11.5115 14.0625 11.7188V13.2812C14.0625 13.4885 14.1448 13.6872 14.2913 13.8337C14.4378 13.9802 14.6365 14.0625 14.8438 14.0625H16.4062C16.6135 14.0625 16.8122 13.9802 16.9587 13.8337C17.1052 13.6872 17.1875 13.4885 17.1875 13.2812V11.7188C17.1875 11.5115 17.1052 11.3128 16.9587 11.1663C16.8122 11.0198 16.6135 10.9375 16.4062 10.9375H14.8438ZM19.5312 10.9375C19.324 10.9375 19.1253 11.0198 18.9788 11.1663C18.8323 11.3128 18.75 11.5115 18.75 11.7188V13.2812C18.75 13.4885 18.8323 13.6872 18.9788 13.8337C19.1253 13.9802 19.324 14.0625 19.5312 14.0625H21.0938C21.301 14.0625 21.4997 13.9802 21.6462 13.8337C21.7927 13.6872 21.875 13.4885 21.875 13.2812V11.7188C21.875 11.5115 21.7927 11.3128 21.6462 11.1663C21.4997 11.0198 21.301 10.9375 21.0938 10.9375H19.5312ZM3.125 16.4062C3.125 16.199 3.20731 16.0003 3.35382 15.8538C3.50034 15.7073 3.69905 15.625 3.90625 15.625H5.46875C5.67595 15.625 5.87466 15.7073 6.02118 15.8538C6.16769 16.0003 6.25 16.199 6.25 16.4062V17.9688C6.25 18.176 6.16769 18.3747 6.02118 18.5212C5.87466 18.6677 5.67595 18.75 5.46875 18.75H3.90625C3.69905 18.75 3.50034 18.6677 3.35382 18.5212C3.20731 18.3747 3.125 18.176 3.125 17.9688V16.4062ZM8.59375 15.625C8.38655 15.625 8.18784 15.7073 8.04132 15.8538C7.89481 16.0003 7.8125 16.199 7.8125 16.4062V17.9688C7.8125 18.176 7.89481 18.3747 8.04132 18.5212C8.18784 18.6677 8.38655 18.75 8.59375 18.75H10.1562C10.3635 18.75 10.5622 18.6677 10.7087 18.5212C10.8552 18.3747 10.9375 18.176 10.9375 17.9688V16.4062C10.9375 16.199 10.8552 16.0003 10.7087 15.8538C10.5622 15.7073 10.3635 15.625 10.1562 15.625H8.59375Z" fill="#0661D6"/>
</svg>
