<svg width="124" height="33" viewBox="0 0 124 33" fill="none" xmlns="http://www.w3.org/2000/svg">
<g clip-path="url(#clip0)">
<path d="M25.231 7.68726V8.10764C25.231 14.6236 22.7468 20.7491 18.1974 25.4334L18.0478 25.6136C17.958 25.7036 17.8682 25.7637 17.8084 25.8538L17.6886 25.9739C13.0196 30.508 6.91383 33.0003 0.41902 33.0003H0V28.346H0.44895C5.20782 28.346 9.81704 26.6345 13.4685 23.5717C12.4808 17.1459 6.91383 12.3115 0.44895 12.3115H0V7.68726H0.44895C7.12334 7.68726 12.6305 10.9602 15.4738 16.0348C15.9527 16.9056 16.7608 18.7373 15.9527 19.9684L16.4914 20.3588C16.671 20.1786 16.5214 20.2987 16.7009 20.1186C17.0002 19.7282 17.2995 19.3078 17.539 18.8574C17.5988 18.7673 17.6587 18.6772 17.7186 18.5872C19.6341 15.4343 20.6517 11.8611 20.6517 8.13767V7.68726H25.231Z" fill="white"/>
<path d="M39.386 7.68726H43.9054V25.5235H39.386V22.9411H38.7275C37.9494 25.013 36.2434 26.0339 33.6394 26.0339C32.7415 26.0339 31.9334 25.8838 31.1553 25.6136C30.3771 25.3133 29.7186 24.8929 29.1499 24.2924C28.5813 23.6918 28.1323 22.9411 27.8031 22.0403C27.4739 21.1395 27.3242 20.0885 27.3242 18.8574V7.68726H31.8436V17.8965C31.8436 19.1577 32.1429 20.1486 32.7415 20.8692C33.3401 21.5899 34.238 21.9202 35.4352 21.9202C36.7821 21.9202 37.7997 21.4698 38.4282 20.599C39.0568 19.7282 39.386 18.5271 39.386 17.0257V7.68726Z" fill="white"/>
<path d="M51.2069 33.0005H46.6875V7.68747H51.2069V10.2698H51.8654C52.3443 9.27891 53.0327 8.52823 53.9306 7.98774C54.8285 7.44725 55.9957 7.177 57.4024 7.177C58.45 7.177 59.4377 7.38719 60.3954 7.77755C61.3532 8.19793 62.1613 8.76845 62.8796 9.54916C63.5979 10.3299 64.1367 11.2907 64.5557 12.4018C64.9747 13.5428 65.1842 14.8039 65.1842 16.2452V16.9058C65.1842 18.3772 64.9747 19.6684 64.5856 20.7794C64.1666 21.9204 63.6279 22.8512 62.9395 23.632C62.2511 24.4127 61.4131 24.9832 60.4852 25.4036C59.5275 25.7939 58.5098 26.0041 57.4324 26.0041C56.6243 26.0041 55.9059 25.914 55.3073 25.7639C54.7087 25.5837 54.1999 25.3735 53.751 25.0733C53.302 24.773 52.9429 24.4427 52.6436 24.0824C52.3443 23.722 52.0749 23.3317 51.8654 22.9113H51.2069V33.0005ZM55.9359 21.7102C57.3426 21.7102 58.4799 21.2598 59.3479 20.389C60.2159 19.5182 60.6648 18.3171 60.6648 16.8158V16.3954C60.6648 14.894 60.2159 13.6929 59.3479 12.8221C58.4799 11.9513 57.3426 11.5009 55.9359 11.5009C54.5292 11.5009 53.3918 11.9513 52.5238 12.8522C51.6559 13.753 51.2069 14.924 51.2069 16.3954V16.8158C51.2069 18.2871 51.6559 19.4582 52.5238 20.359C53.3918 21.2598 54.5292 21.7102 55.9359 21.7102Z" fill="white"/>
<path d="M71.4999 33.0005H66.9805V7.68747H71.4999V10.2698H72.1584C72.6372 9.27891 73.3256 8.52823 74.2235 7.98774C75.1214 7.44725 76.2887 7.177 77.6954 7.177C78.743 7.177 79.7307 7.38719 80.6884 7.77755C81.6462 8.19793 82.4543 8.76845 83.1726 9.54916C83.8909 10.3299 84.4297 11.2907 84.8487 12.4018C85.2677 13.5428 85.4772 14.8039 85.4772 16.2452V16.9058C85.4772 18.3772 85.2677 19.6684 84.8786 20.7794C84.4596 21.9204 83.9209 22.8512 83.2325 23.632C82.5441 24.4127 81.706 24.9832 80.7782 25.4036C79.8205 25.7939 78.8028 26.0041 77.7254 26.0041C76.9172 26.0041 76.1989 25.914 75.6003 25.7639C75.0017 25.5837 74.4929 25.3735 74.044 25.0733C73.595 24.773 73.2358 24.4427 72.9365 24.0824C72.6372 23.722 72.3679 23.3317 72.1584 22.9113H71.4999V33.0005ZM76.2288 21.7102C77.6356 21.7102 78.7729 21.2598 79.6409 20.389C80.5088 19.5182 80.9578 18.3171 80.9578 16.8158V16.3954C80.9578 14.894 80.5088 13.6929 79.6409 12.8221C78.7729 11.9513 77.6356 11.5009 76.2288 11.5009C74.8221 11.5009 73.6848 11.9513 72.8168 12.8522C71.9489 13.753 71.4999 14.924 71.4999 16.3954V16.8158C71.4999 18.2871 71.9489 19.4582 72.8168 20.359C73.6848 21.2598 74.8221 21.7102 76.2288 21.7102Z" fill="white"/>
<path d="M123.011 7.47703C123.31 7.6572 123.58 7.89742 123.729 8.19769C123.909 8.49796 123.999 8.85829 123.999 9.24864C123.999 9.639 123.909 9.9693 123.729 10.2996C123.55 10.6299 123.31 10.8701 122.981 11.0503C122.682 11.2304 122.323 11.3205 121.934 11.3205C121.545 11.3205 121.215 11.2304 120.916 11.0503C120.617 10.8701 120.347 10.6299 120.168 10.2996C119.988 9.99933 119.898 9.639 119.898 9.27867C119.898 8.91834 119.988 8.55802 120.168 8.25774C120.347 7.95747 120.587 7.68723 120.916 7.50706C121.215 7.3269 121.575 7.23682 121.964 7.23682C122.353 7.23682 122.682 7.29687 123.011 7.47703ZM122.832 10.75C123.101 10.5999 123.31 10.3897 123.46 10.1194C123.61 9.84919 123.7 9.54892 123.7 9.24864C123.7 8.91834 123.64 8.6481 123.49 8.37785C123.34 8.10761 123.131 7.89742 122.891 7.74728C122.622 7.59714 122.353 7.50706 122.023 7.50706C121.694 7.50706 121.395 7.59714 121.155 7.74728C120.886 7.89742 120.677 8.10761 120.527 8.37785C120.377 8.6481 120.317 8.94837 120.317 9.24864C120.317 9.57894 120.377 9.84919 120.527 10.1194C120.677 10.3897 120.886 10.5999 121.155 10.75C121.425 10.9001 121.694 10.9902 122.023 10.9902C122.263 10.9902 122.562 10.9001 122.832 10.75ZM122.891 9.33873C122.802 9.45884 122.712 9.54892 122.562 9.60897L123.071 10.3897H122.562L122.113 9.69905H122.053H121.604V10.3897H121.096V8.10761H122.053C122.353 8.10761 122.592 8.16766 122.742 8.3178C122.921 8.46794 123.011 8.6481 123.011 8.88832C123.011 9.06848 122.981 9.21862 122.891 9.33873ZM122.023 9.3087C122.173 9.3087 122.323 9.27867 122.413 9.18859C122.502 9.12854 122.532 9.00843 122.532 8.88832C122.532 8.76821 122.472 8.6481 122.413 8.58804C122.323 8.52799 122.203 8.49796 122.023 8.49796H121.604V9.3087H122.023Z" fill="white"/>
<path d="M96.1935 21.3493V9.93891C96.1935 9.00806 95.9242 8.28741 95.4453 7.80697C94.9664 7.35656 94.278 7.14637 93.3502 7.1764L87.6934 7.53673H87.6036V11.6805L91.6741 11.4403V21.3493H86.6758V25.4931H101.222V21.3493H96.1935Z" fill="white"/>
<path d="M93.5008 5.5553C95.3863 5.5553 96.6135 4.47431 96.6135 2.79278C96.6135 1.14128 95.3564 0.0302734 93.5008 0.0302734C91.6152 0.0302734 90.418 1.11126 90.418 2.79278C90.418 4.47431 91.5852 5.5553 93.5008 5.5553Z" fill="white"/>
<path d="M105.653 18.167C105.683 18.7075 105.803 19.1879 106.043 19.6383C106.282 20.0887 106.581 20.4791 107 20.8094C107.389 21.1397 107.868 21.3799 108.377 21.5601C108.886 21.7402 109.455 21.8303 110.023 21.8303C111.161 21.8303 112.029 21.6201 112.627 21.2298C113.226 20.8394 113.675 20.359 113.944 19.7885L117.865 21.9805C117.655 22.4309 117.356 22.9113 116.967 23.4218C116.578 23.9322 116.069 24.3826 115.471 24.773C114.842 25.1934 114.094 25.5237 113.226 25.7939C112.358 26.0642 111.31 26.1843 110.113 26.1843C108.766 26.1843 107.509 25.9741 106.402 25.5237C105.294 25.0733 104.337 24.4427 103.528 23.632C102.72 22.8212 102.092 21.8003 101.643 20.5992C101.194 19.3981 100.984 18.0769 100.984 16.5455V16.3353C100.984 14.9541 101.224 13.6929 101.703 12.5519C102.182 11.4108 102.81 10.45 103.648 9.63924C104.456 8.8285 105.444 8.22795 106.521 7.77754C107.629 7.32713 108.796 7.11694 110.053 7.11694C111.61 7.11694 112.926 7.38719 114.034 7.92768C115.141 8.46817 116.069 9.1588 116.787 9.99956C117.506 10.8403 118.044 11.7712 118.374 12.7621C118.703 13.783 118.883 14.7439 118.883 15.7048V18.137H105.653V18.167ZM109.993 11.2607C108.826 11.2607 107.898 11.561 107.15 12.1615C106.432 12.7621 105.953 13.4527 105.743 14.2334H114.243C114.094 13.3927 113.645 12.672 112.867 12.1315C112.118 11.561 111.131 11.2607 109.993 11.2607Z" fill="white"/>
</g>
<defs>
<clipPath id="clip0">
<rect width="124" height="33" fill="white"/>
</clipPath>
</defs>
</svg>
