<svg width="25" height="25" viewBox="0 0 25 25" fill="none" xmlns="http://www.w3.org/2000/svg">
<path d="M0 21.875C0 22.7378 0.559766 23.4375 1.25 23.4375H23.75C24.4402 23.4375 25 22.7378 25 21.875V6.25H0V21.875ZM17.5 11.7188C17.5 11.2871 17.7797 10.9375 18.125 10.9375H21.875C22.2203 10.9375 22.5 11.2871 22.5 11.7188V13.2812C22.5 13.7129 22.2203 14.0625 21.875 14.0625H18.125C17.7797 14.0625 17.5 13.7129 17.5 13.2812V11.7188ZM17.5 17.5781C17.5 17.3623 17.6398 17.1875 17.8125 17.1875H22.1875C22.3602 17.1875 22.5 17.3623 22.5 17.5781V18.3594C22.5 18.5752 22.3602 18.75 22.1875 18.75H17.8125C17.6398 18.75 17.5 18.5752 17.5 18.3594V17.5781ZM2.5 12.8906C2.5 12.6748 2.63984 12.5 2.8125 12.5H14.6875C14.8602 12.5 15 12.6748 15 12.8906V13.6719C15 13.8877 14.8602 14.0625 14.6875 14.0625H2.8125C2.63984 14.0625 2.5 13.8877 2.5 13.6719V12.8906ZM2.5 17.5781C2.5 17.3623 2.63984 17.1875 2.8125 17.1875H9.6875C9.86016 17.1875 10 17.3623 10 17.5781V18.3594C10 18.5752 9.86016 18.75 9.6875 18.75H2.8125C2.63984 18.75 2.5 18.5752 2.5 18.3594V17.5781ZM24.375 1.5625H0.625C0.279687 1.5625 0 1.91211 0 2.34375V4.6875H25V2.34375C25 1.91211 24.7203 1.5625 24.375 1.5625Z" fill="#0661D6"/>
</svg>
