<svg width="25" height="24" viewBox="0 0 25 24" fill="none" xmlns="http://www.w3.org/2000/svg">
<g clip-path="url(#clip0)">
<path d="M12.0797 18.8635L18.8115 22.926C19.3062 23.2255 19.9182 22.7828 19.788 22.2229L18.0042 14.5667L23.9417 9.42344C24.3714 9.04584 24.15 8.32969 23.5641 8.27761L15.7385 7.61354L12.6786 0.400002C12.6295 0.281589 12.5464 0.18039 12.4398 0.109194C12.3332 0.0379986 12.2079 0 12.0797 0C11.9515 0 11.8262 0.0379986 11.7196 0.109194C11.613 0.18039 11.5298 0.281589 11.4807 0.400002L8.42083 7.61354L0.595309 8.27761C0.467135 8.28862 0.345097 8.33736 0.2446 8.41767C0.144103 8.49798 0.0696531 8.60627 0.0306473 8.72886C-0.00835864 8.85145 -0.0101713 8.98285 0.0254381 9.10647C0.0610474 9.23009 0.132482 9.34039 0.230725 9.42344L6.16823 14.5667L4.38437 22.2229C4.25416 22.7828 4.86614 23.2255 5.36093 22.926L12.0797 18.8635Z" fill="#0661D6"/>
</g>
<defs>
<clipPath id="clip0">
<rect width="25" height="23.75" fill="white"/>
</clipPath>
</defs>
</svg>
