<svg width="22" height="25" viewBox="0 0 22 25" fill="none" xmlns="http://www.w3.org/2000/svg">
<g clip-path="url(#clip0)">
<path d="M19.0833 7.60714L20.7738 5.91667C20.2381 5.30952 19.7024 4.7619 19.0952 4.2381L17.4048 5.95238C15.5595 4.45238 13.2381 3.57143 10.7143 3.57143C7.87268 3.57143 5.14746 4.70025 3.13814 6.70957C1.12882 8.71889 0 11.4441 0 14.2857C0 17.1273 1.12882 19.8525 3.13814 21.8619C5.14746 23.8712 7.87268 25 10.7143 25C16.6667 25 21.4286 20.2024 21.4286 14.2857C21.4286 11.7619 20.5476 9.44048 19.0833 7.60714ZM11.9048 15.4762H9.52381V7.14286H11.9048V15.4762ZM14.2857 0H7.14286V2.38095H14.2857V0Z" fill="#0661D6"/>
</g>
<defs>
<clipPath id="clip0">
<rect width="21.4286" height="25" fill="white"/>
</clipPath>
</defs>
</svg>
