<svg width="15" height="15" viewBox="0 0 15 15" fill="none" xmlns="http://www.w3.org/2000/svg">
<circle cx="7.5" cy="7.5" r="7" stroke="black"/>
<path d="M6.664 9.216C6.664 8.784 6.76 8.428 6.952 8.148C7.152 7.86 7.44 7.548 7.816 7.212C8.104 6.956 8.316 6.736 8.452 6.552C8.596 6.36 8.668 6.144 8.668 5.904C8.668 5.568 8.532 5.296 8.26 5.088C7.988 4.88 7.624 4.776 7.168 4.776C6.304 4.776 5.652 5.084 5.212 5.7L4.048 4.944C4.392 4.472 4.836 4.112 5.38 3.864C5.924 3.608 6.564 3.48 7.3 3.48C8.196 3.48 8.908 3.676 9.436 4.068C9.972 4.452 10.24 4.984 10.24 5.664C10.24 5.992 10.184 6.28 10.072 6.528C9.968 6.776 9.84 6.988 9.688 7.164C9.536 7.332 9.336 7.528 9.088 7.752C8.784 8.024 8.556 8.264 8.404 8.472C8.26 8.68 8.188 8.928 8.188 9.216H6.664ZM7.432 12.084C7.152 12.084 6.92 11.996 6.736 11.82C6.56 11.636 6.472 11.412 6.472 11.148C6.472 10.884 6.56 10.664 6.736 10.488C6.92 10.312 7.152 10.224 7.432 10.224C7.704 10.224 7.928 10.312 8.104 10.488C8.288 10.664 8.38 10.884 8.38 11.148C8.38 11.412 8.288 11.636 8.104 11.82C7.928 11.996 7.704 12.084 7.432 12.084Z" fill="#0661D6"/>
</svg>
