<svg width="20" height="12" viewBox="0 0 20 12" fill="none" xmlns="http://www.w3.org/2000/svg">
<g clip-path="url(#clip0)">
<path d="M19.579 0.855072C19.719 0.390072 19.579 0.0490723 18.917 0.0490723H16.724C16.166 0.0490723 15.911 0.344073 15.771 0.668073C15.771 0.668073 14.656 3.38707 13.076 5.15007C12.566 5.66307 12.333 5.82507 12.055 5.82507C11.916 5.82507 11.714 5.66307 11.714 5.19807V0.855072C11.714 0.297072 11.553 0.0490723 11.088 0.0490723H7.642C7.294 0.0490723 7.084 0.307072 7.084 0.553072C7.084 1.08107 7.874 1.20307 7.955 2.69107V5.91907C7.955 6.62607 7.828 6.75507 7.548 6.75507C6.805 6.75507 4.997 4.02607 3.924 0.902072C3.715 0.295072 3.504 0.0500727 2.944 0.0500727H0.752C0.125 0.0500727 0 0.345073 0 0.669073C0 1.25107 0.743 4.13107 3.461 7.94007C5.273 10.5411 7.824 11.9511 10.148 11.9511C11.541 11.9511 11.713 11.6381 11.713 11.0981V9.13207C11.713 8.50607 11.846 8.38007 12.287 8.38007C12.611 8.38007 13.169 8.54407 14.47 9.79707C15.956 11.2831 16.202 11.9501 17.037 11.9501H19.229C19.855 11.9501 20.168 11.6371 19.988 11.0191C19.791 10.4041 19.081 9.50907 18.139 8.45007C17.627 7.84607 16.862 7.19607 16.629 6.87107C16.304 6.45207 16.398 6.26707 16.629 5.89507C16.63 5.89607 19.301 2.13407 19.579 0.855072Z" fill="white"/>
</g>
<defs>
<clipPath id="clip0">
<rect width="20" height="12" fill="white"/>
</clipPath>
</defs>
</svg>
